<svg width="32" height="32" viewBox="0 0 32 32" fill="none" xmlns="http://www.w3.org/2000/svg">
<path d="M8.00002 26.4197C7.62225 26.4197 7.3058 26.2917 7.05069 26.0357C6.79558 25.7797 6.66758 25.4632 6.66669 25.0863C6.6658 24.7095 6.7938 24.393 7.05069 24.137C7.30758 23.881 7.62402 23.753 8.00002 23.753H24C24.3778 23.753 24.6947 23.881 24.9507 24.137C25.2067 24.393 25.3342 24.7095 25.3334 25.0863C25.3325 25.4632 25.2045 25.7801 24.9494 26.037C24.6942 26.2939 24.3778 26.4215 24 26.4197H8.00002ZM8.93336 21.753C8.28891 21.753 7.71691 21.5419 7.21736 21.1197C6.7178 20.6975 6.41202 20.1641 6.30002 19.5197L4.96669 11.053C4.92225 11.053 4.87247 11.0588 4.81736 11.0703C4.76225 11.0819 4.71202 11.0872 4.66669 11.0863C4.11113 11.0863 3.63913 10.8921 3.25069 10.5037C2.86225 10.1152 2.66758 9.64279 2.66669 9.08635C2.6658 8.5299 2.86047 8.0579 3.25069 7.67035C3.64091 7.28279 4.11291 7.08813 4.66669 7.08635C5.22047 7.08457 5.69291 7.27924 6.08402 7.67035C6.47513 8.06146 6.66936 8.53346 6.66669 9.08635C6.66669 9.2419 6.6498 9.38635 6.61602 9.51968C6.58225 9.65301 6.54358 9.77524 6.50002 9.88635L10.6667 11.753L14.8334 6.05301C14.5889 5.87524 14.3889 5.6419 14.2334 5.35301C14.0778 5.06413 14 4.75301 14 4.41968C14 3.86413 14.1947 3.39168 14.584 3.00235C14.9734 2.61301 15.4454 2.41879 16 2.41968C16.5547 2.42057 17.0271 2.61524 17.4174 3.00368C17.8076 3.39213 18.0018 3.86413 18 4.41968C18 4.75301 17.9222 5.06413 17.7667 5.35301C17.6111 5.6419 17.4111 5.87524 17.1667 6.05301L21.3334 11.753L25.5 9.88635C25.4556 9.77524 25.4165 9.65301 25.3827 9.51968C25.3489 9.38635 25.3325 9.2419 25.3334 9.08635C25.3334 8.53079 25.528 8.05835 25.9174 7.66901C26.3067 7.27968 26.7787 7.08546 27.3334 7.08635C27.888 7.08724 28.3605 7.2819 28.7507 7.67035C29.1409 8.05879 29.3351 8.53079 29.3334 9.08635C29.3316 9.6419 29.1374 10.1143 28.7507 10.5037C28.364 10.893 27.8916 11.0872 27.3334 11.0863C27.2889 11.0863 27.2391 11.081 27.184 11.0703C27.1289 11.0597 27.0787 11.0539 27.0334 11.053L25.7 19.5197C25.5889 20.1641 25.2836 20.6975 24.784 21.1197C24.2845 21.5419 23.712 21.753 23.0667 21.753H8.93336Z" fill="#CA9D0A"/>
</svg>
