<svg width="168" height="151" viewBox="0 0 168 151" fill="none" xmlns="http://www.w3.org/2000/svg">
<path d="M34.0003 150.125C31.6392 150.125 29.6615 149.325 28.067 147.725C26.4726 146.125 25.6726 144.147 25.667 141.791C25.6615 139.436 26.4615 137.458 28.067 135.858C29.6726 134.258 31.6503 133.458 34.0003 133.458H134C136.361 133.458 138.342 134.258 139.942 135.858C141.542 137.458 142.339 139.436 142.334 141.791C142.328 144.147 141.528 146.127 139.934 147.733C138.339 149.338 136.361 150.136 134 150.125H34.0003ZM39.8337 120.958C35.8059 120.958 32.2309 119.638 29.1087 117C25.9865 114.361 24.0753 111.027 23.3753 107L15.042 54.0829C14.7642 54.0829 14.4531 54.119 14.1087 54.1912C13.7642 54.2634 13.4503 54.2968 13.167 54.2912C9.69479 54.2912 6.74479 53.0773 4.31701 50.6495C1.88923 48.2217 0.672567 45.269 0.667011 41.7912C0.661456 38.3134 1.87812 35.3634 4.31701 32.9412C6.7559 30.519 9.7059 29.3023 13.167 29.2912C16.6281 29.2801 19.5809 30.4968 22.0253 32.9412C24.4698 35.3856 25.6837 38.3356 25.667 41.7912C25.667 42.7634 25.5615 43.6662 25.3503 44.4995C25.1392 45.3329 24.8976 46.0968 24.6253 46.7912L50.667 58.4579L76.7087 22.8329C75.1809 21.7218 73.9309 20.2634 72.9587 18.4579C71.9865 16.6523 71.5003 14.7079 71.5003 12.6245C71.5003 9.15231 72.717 6.19953 75.1503 3.7662C77.5837 1.33286 80.5337 0.118975 84.0003 0.124531C87.467 0.130086 90.4198 1.34675 92.8587 3.77453C95.2976 6.20231 96.5115 9.15231 96.5003 12.6245C96.5003 14.7079 96.0142 16.6523 95.042 18.4579C94.0698 20.2634 92.8198 21.7218 91.292 22.8329L117.334 58.4579L143.375 46.7912C143.098 46.0968 142.853 45.3329 142.642 44.4995C142.431 43.6662 142.328 42.7634 142.334 41.7912C142.334 38.319 143.55 35.3662 145.984 32.9329C148.417 30.4995 151.367 29.2856 154.834 29.2912C158.3 29.2968 161.253 30.5134 163.692 32.9412C166.131 35.369 167.345 38.319 167.334 41.7912C167.323 45.2634 166.109 48.2162 163.692 50.6495C161.275 53.0829 158.323 54.2968 154.834 54.2912C154.556 54.2912 154.245 54.2579 153.9 54.1912C153.556 54.1245 153.242 54.0884 152.959 54.0829L144.625 107C143.931 111.027 142.023 114.361 138.9 117C135.778 119.638 132.2 120.958 128.167 120.958H39.8337Z" fill="#CA9D0A"/>
</svg>
