<svg width="200" height="200" viewBox="0 0 200 200" fill="none" xmlns="http://www.w3.org/2000/svg">
<path d="M99.375 185.625C55.7812 185.625 8.75 158.281 8.75 98.2812C8.75 38.2812 55.7812 10.9375 99.375 10.9375C123.594 10.9375 145.938 18.9062 162.5 33.4375C180.469 49.375 190 71.875 190 98.2812C190 124.688 180.469 147.031 162.5 162.969C145.938 177.5 123.438 185.625 99.375 185.625Z" fill="url(#paint0_radial_252_48)"/>
<path d="M174.203 46.3594C182.531 59.7969 186.875 75.7969 186.875 93.5938C186.875 120 177.344 142.344 159.375 158.281C142.812 172.812 120.312 180.938 96.25 180.938C68.0312 180.938 38.4375 169.453 20.9688 145.094C37.7812 172.687 69.4062 185.625 99.375 185.625C123.438 185.625 145.938 177.5 162.5 162.969C180.469 147.031 190 124.688 190 98.2812C190 78.375 184.578 60.6875 174.203 46.3594Z" fill="#EB8F00"/>
<path d="M100 136.172C116.906 136.172 127.859 148.547 130.703 154.25C131.797 156.453 131.859 158.281 130.922 159.141C129.938 159.781 128.656 159.781 127.672 159.141C127.188 158.906 126.703 158.641 126.266 158.328C118.609 152.842 109.427 149.891 100.008 149.891C90.5887 149.891 81.4062 152.842 73.75 158.328C73.3125 158.641 72.8438 158.906 72.3438 159.141C71.3594 159.797 70.0781 159.797 69.0938 159.141C68.1563 158.281 68.2188 156.453 69.3125 154.25C72.1406 148.562 83.0938 136.172 100 136.172ZM42.7969 62.1406C39.3594 62.75 39.1875 67.75 42.9375 67.9219C51.2188 68.0469 59.2188 64.9844 65.3125 59.375C67.6296 57.383 69.59 55.0104 71.1094 52.3594C72.0156 51.0625 71.7031 49.2812 70.4219 48.3594C69.1406 47.4375 67.3438 47.7656 66.4219 49.0469L66.2656 49.2031C60.125 56.0625 51.8594 60.6094 42.7969 62.1406ZM134.563 49.25L134.406 49.0937C133.969 48.4708 133.302 48.0469 132.552 47.9151C131.802 47.7832 131.03 47.9543 130.406 48.3906C130.097 48.6072 129.834 48.8828 129.632 49.2015C129.431 49.5202 129.294 49.8757 129.23 50.2475C129.166 50.6193 129.176 51.0001 129.26 51.3679C129.344 51.7357 129.5 52.0833 129.719 52.3906C131.25 55.0312 133.219 57.3906 135.547 59.375C141.641 64.9844 149.641 68.0312 157.922 67.8906C161.672 67.7187 161.5 62.7187 158.047 62.1094C148.984 60.5937 140.719 56.0625 134.563 49.25Z" fill="#422B0D"/>
<path d="M30.5 167.188C17.2812 167.188 7.0625 154.359 7.0625 143.375C7.0625 135.656 10.5156 126.703 15.4062 114.297C16.0156 112.469 16.8281 110.625 17.6406 108.594C19.9688 102.781 22.0156 96.4844 25.1406 91.0313C25.6173 90.1775 26.3131 89.4664 27.1564 88.9714C27.9996 88.4764 28.9597 88.2155 29.9375 88.2155C30.9153 88.2155 31.8754 88.4764 32.7186 88.9714C33.5619 89.4664 34.2577 90.1775 34.7344 91.0313C37.6406 96.3907 39.6406 102.188 42.6562 108.953C51.2031 128.078 53.5938 135.813 53.5938 143.531C53.8906 154.422 43.5156 167.188 30.5 167.188Z" fill="url(#paint1_radial_252_48)"/>
<path d="M44.7969 152.578C41.8125 157.266 35.0312 156.328 35.0312 148.656C35.0312 143.75 36.0313 118.563 40.25 122.094C47.0938 127.828 49.0469 146.047 44.7969 152.578Z" fill="#81D4FA"/>
<path d="M69.7969 85.8438C63.25 85.8438 57.2969 91.375 57.2969 100.563C57.2969 109.75 63.25 115.266 69.7969 115.266C76.3438 115.266 82.2969 109.734 82.2969 100.563C82.2969 91.3906 76.3438 85.8438 69.7969 85.8438Z" fill="#422B0D"/>
<path d="M69.1874 91.9844C68.1175 91.4755 66.8899 91.4099 65.7719 91.8021C64.6539 92.1943 63.7362 93.0124 63.2187 94.0782C62.3906 95.8126 62.7656 97.8907 64.1562 99.2344C66.3749 100.297 69.0468 99.3594 70.1249 97.1407C70.9531 95.4063 70.5781 93.3282 69.1874 91.9844Z" fill="#896024"/>
<path d="M129.688 85.8438C123.141 85.8438 117.188 91.375 117.188 100.563C117.188 109.75 123.141 115.266 129.688 115.266C136.234 115.266 142.188 109.734 142.188 100.563C142.188 91.3906 136.266 85.8438 129.688 85.8438Z" fill="#422B0D"/>
<path d="M129.109 91.9844C128.039 91.4755 126.812 91.4099 125.694 91.8021C124.576 92.1943 123.658 93.0124 123.141 94.0782C122.312 95.8126 122.687 97.8907 124.078 99.2344C126.297 100.297 128.969 99.3594 130.047 97.1407C130.875 95.4063 130.5 93.3282 129.109 91.9844Z" fill="#896024"/>
<defs>
<radialGradient id="paint0_radial_252_48" cx="0" cy="0" r="1" gradientUnits="userSpaceOnUse" gradientTransform="translate(99.375 98.2812) scale(89)">
<stop offset="0.5" stop-color="#FDE030"/>
<stop offset="0.92" stop-color="#F7C02B"/>
<stop offset="1" stop-color="#F4A223"/>
</radialGradient>
<radialGradient id="paint1_radial_252_48" cx="0" cy="0" r="1" gradientUnits="userSpaceOnUse" gradientTransform="translate(32.1719 98.3442) scale(52.1875 80.3688)">
<stop offset="0.46" stop-color="#29B6F6"/>
<stop offset="1" stop-color="#1E88E5"/>
</radialGradient>
</defs>
</svg>
