<svg width="25" height="25" viewBox="0 0 25 25" fill="none" xmlns="http://www.w3.org/2000/svg">
<g clip-path="url(#clip0_99_568)">
<path d="M20.3125 19.4775C23.1689 17.4707 25 14.3945 25 10.9375C25 4.89746 19.4043 0 12.5 0C5.5957 0 0 4.89746 0 10.9375C0 14.3896 1.83105 17.4707 4.6875 19.4775V22.6562C4.6875 23.9502 5.7373 25 7.03125 25H9.375V22.6562C9.375 22.2266 9.72656 21.875 10.1562 21.875C10.5859 21.875 10.9375 22.2266 10.9375 22.6562V25H14.0625V22.6562C14.0625 22.2266 14.4141 21.875 14.8438 21.875C15.2734 21.875 15.625 22.2266 15.625 22.6562V25H17.9688C19.2627 25 20.3125 23.9502 20.3125 22.6562V19.4775ZM4.6875 12.5C4.6875 11.6712 5.01674 10.8763 5.60279 10.2903C6.18884 9.70424 6.9837 9.375 7.8125 9.375C8.6413 9.375 9.43616 9.70424 10.0222 10.2903C10.6083 10.8763 10.9375 11.6712 10.9375 12.5C10.9375 13.3288 10.6083 14.1237 10.0222 14.7097C9.43616 15.2958 8.6413 15.625 7.8125 15.625C6.9837 15.625 6.18884 15.2958 5.60279 14.7097C5.01674 14.1237 4.6875 13.3288 4.6875 12.5ZM17.1875 9.375C18.0163 9.375 18.8112 9.70424 19.3972 10.2903C19.9833 10.8763 20.3125 11.6712 20.3125 12.5C20.3125 13.3288 19.9833 14.1237 19.3972 14.7097C18.8112 15.2958 18.0163 15.625 17.1875 15.625C16.3587 15.625 15.5638 15.2958 14.9778 14.7097C14.3917 14.1237 14.0625 13.3288 14.0625 12.5C14.0625 11.6712 14.3917 10.8763 14.9778 10.2903C15.5638 9.70424 16.3587 9.375 17.1875 9.375Z" fill="#7C848E"/>
</g>
<defs>
<clipPath id="clip0_99_568">
<rect width="25" height="25" fill="white"/>
</clipPath>
</defs>
</svg>
